<svg width="209" height="47" viewBox="0 0 209 47" fill="none" xmlns="http://www.w3.org/2000/svg">
<path d="M33.9703 11.6133L32.3648 13.1602V18H30.9586V0H32.3648V11.5195L33.6891 10.0898L38.5406 5.32031H40.3102L34.9313 10.6641L40.7789 18H39.1031L33.9703 11.6133ZM42.1008 11.4727C42.1008 10.2539 42.3352 9.15625 42.8039 8.17969C43.2805 7.20312 43.9484 6.44531 44.8078 5.90625C45.675 5.35937 46.6555 5.08594 47.7492 5.08594C49.4367 5.08594 50.8039 5.67969 51.8508 6.86719C52.8977 8.04688 53.4211 9.61328 53.4211 11.5664V11.8594C53.4211 13.0859 53.1828 14.1914 52.7063 15.1758C52.2375 16.1523 51.5734 16.9062 50.7141 17.4375C49.8547 17.9688 48.8742 18.2344 47.7727 18.2344C46.093 18.2344 44.7258 17.6445 43.6711 16.4648C42.6242 15.2773 42.1008 13.707 42.1008 11.7539V11.4727ZM43.507 11.8594C43.507 13.375 43.8977 14.6211 44.6789 15.5977C45.468 16.5664 46.4992 17.0508 47.7727 17.0508C49.0383 17.0508 50.0617 16.5664 50.843 15.5977C51.632 14.6211 52.0266 13.3359 52.0266 11.7422V11.4727C52.0266 10.5039 51.8469 9.61719 51.4875 8.8125C51.1281 8.00781 50.6242 7.38672 49.9758 6.94922C49.3273 6.50391 48.5852 6.28125 47.7492 6.28125C46.4992 6.28125 45.4797 6.77344 44.6906 7.75781C43.9016 8.73438 43.507 10.0156 43.507 11.6016V11.8594ZM62.3367 6.51562C62.0398 6.46094 61.7234 6.43359 61.3875 6.43359C60.5125 6.43359 59.7703 6.67969 59.1609 7.17188C58.5594 7.65625 58.1297 8.36328 57.8719 9.29297V18H56.4773V5.32031H57.8484L57.8719 7.33594C58.6141 5.83594 59.8055 5.08594 61.4461 5.08594C61.8367 5.08594 62.1453 5.13672 62.3719 5.23828L62.3367 6.51562ZM63.7055 11.4727C63.7055 10.2539 63.9398 9.15625 64.4086 8.17969C64.8852 7.20312 65.5531 6.44531 66.4125 5.90625C67.2797 5.35937 68.2602 5.08594 69.3539 5.08594C71.0414 5.08594 72.4086 5.67969 73.4555 6.86719C74.5023 8.04688 75.0258 9.61328 75.0258 11.5664V11.8594C75.0258 13.0859 74.7875 14.1914 74.3109 15.1758C73.8422 16.1523 73.1781 16.9062 72.3188 17.4375C71.4594 17.9688 70.4789 18.2344 69.3773 18.2344C67.6977 18.2344 66.3305 17.6445 65.2758 16.4648C64.2289 15.2773 63.7055 13.707 63.7055 11.7539V11.4727ZM65.1117 11.8594C65.1117 13.375 65.5023 14.6211 66.2836 15.5977C67.0727 16.5664 68.1039 17.0508 69.3773 17.0508C70.643 17.0508 71.6664 16.5664 72.4477 15.5977C73.2367 14.6211 73.6313 13.3359 73.6313 11.7422V11.4727C73.6313 10.5039 73.4516 9.61719 73.0922 8.8125C72.7328 8.00781 72.2289 7.38672 71.5805 6.94922C70.932 6.50391 70.1898 6.28125 69.3539 6.28125C68.1039 6.28125 67.0844 6.77344 66.2953 7.75781C65.5063 8.73438 65.1117 10.0156 65.1117 11.6016V11.8594ZM79.418 5.32031L79.4648 7.48828C79.9414 6.70703 80.5352 6.11328 81.2461 5.70703C81.957 5.29297 82.7422 5.08594 83.6016 5.08594C84.9609 5.08594 85.9727 5.46875 86.6367 6.23438C87.3008 7 87.6367 8.14844 87.6445 9.67969V18H86.25V9.66797C86.2422 8.53516 86 7.69141 85.5234 7.13672C85.0547 6.58203 84.3008 6.30469 83.2617 6.30469C82.3945 6.30469 81.625 6.57812 80.9531 7.125C80.2891 7.66406 79.7969 8.39453 79.4766 9.31641V18H78.082V5.32031H79.418ZM99.4312 18C99.2906 17.6016 99.2008 17.0117 99.1617 16.2305C98.6695 16.8711 98.0406 17.3672 97.275 17.7188C96.5172 18.0625 95.7125 18.2344 94.8609 18.2344C93.6422 18.2344 92.6539 17.8945 91.8961 17.2148C91.1461 16.5352 90.7711 15.6758 90.7711 14.6367C90.7711 13.4023 91.2828 12.4258 92.3062 11.707C93.3375 10.9883 94.7711 10.6289 96.607 10.6289H99.15V9.1875C99.15 8.28125 98.8687 7.57031 98.3062 7.05469C97.7516 6.53125 96.9391 6.26953 95.8687 6.26953C94.8922 6.26953 94.0836 6.51953 93.443 7.01953C92.8023 7.51953 92.482 8.12109 92.482 8.82422L91.0758 8.8125C91.0758 7.80469 91.5445 6.93359 92.482 6.19922C93.4195 5.45703 94.5719 5.08594 95.9391 5.08594C97.3531 5.08594 98.4664 5.44141 99.2789 6.15234C100.099 6.85547 100.521 7.83984 100.545 9.10547V15.1055C100.545 16.332 100.673 17.25 100.931 17.8594V18H99.4312ZM95.025 16.9922C95.9625 16.9922 96.7984 16.7656 97.5328 16.3125C98.275 15.8594 98.8141 15.2539 99.15 14.4961V11.707H96.6422C95.2437 11.7227 94.15 11.9805 93.3609 12.4805C92.5719 12.9727 92.1773 13.6523 92.1773 14.5195C92.1773 15.2305 92.4391 15.8203 92.9625 16.2891C93.4937 16.7578 94.1812 16.9922 95.025 16.9922ZM108.206 16.0664L112.062 5.32031H113.503L108.769 18H107.632L102.874 5.32031H104.316L108.206 16.0664ZM117.532 18H116.126V5.32031H117.532V18ZM115.88 1.65234C115.88 1.38672 115.966 1.16406 116.138 0.984375C116.309 0.796875 116.544 0.703125 116.841 0.703125C117.138 0.703125 117.372 0.796875 117.544 0.984375C117.723 1.16406 117.813 1.38672 117.813 1.65234C117.813 1.91797 117.723 2.14063 117.544 2.32031C117.372 2.5 117.138 2.58984 116.841 2.58984C116.544 2.58984 116.309 2.5 116.138 2.32031C115.966 2.14063 115.88 1.91797 115.88 1.65234ZM127.362 6.51562C127.065 6.46094 126.748 6.43359 126.413 6.43359C125.538 6.43359 124.795 6.67969 124.186 7.17188C123.584 7.65625 123.155 8.36328 122.897 9.29297V18H121.502V5.32031H122.873L122.897 7.33594C123.639 5.83594 124.83 5.08594 126.471 5.08594C126.862 5.08594 127.17 5.13672 127.397 5.23828L127.362 6.51562ZM137.895 16.3945C137.051 17.6211 135.703 18.2344 133.852 18.2344C132.5 18.2344 131.473 17.8438 130.77 17.0625C130.066 16.2734 129.707 15.1094 129.691 13.5703V5.32031H131.086V13.3945C131.086 15.8086 132.062 17.0156 134.016 17.0156C136.047 17.0156 137.332 16.1758 137.871 14.4961V5.32031H139.277V18H137.918L137.895 16.3945ZM150.677 14.7773C150.677 14.082 150.396 13.5234 149.834 13.1016C149.279 12.6797 148.439 12.3516 147.314 12.1172C146.189 11.875 145.314 11.6016 144.689 11.2969C144.072 10.9844 143.611 10.6055 143.306 10.1602C143.009 9.71484 142.861 9.17578 142.861 8.54297C142.861 7.54297 143.279 6.71875 144.115 6.07031C144.951 5.41406 146.021 5.08594 147.326 5.08594C148.74 5.08594 149.873 5.4375 150.724 6.14062C151.584 6.83594 152.013 7.74609 152.013 8.87109H150.607C150.607 8.12891 150.295 7.51172 149.67 7.01953C149.052 6.52734 148.271 6.28125 147.326 6.28125C146.404 6.28125 145.662 6.48828 145.099 6.90234C144.545 7.30859 144.267 7.83984 144.267 8.49609C144.267 9.12891 144.498 9.62109 144.959 9.97266C145.427 10.3164 146.275 10.6328 147.502 10.9219C148.736 11.2109 149.658 11.5195 150.267 11.8477C150.884 12.1758 151.341 12.5703 151.638 13.0312C151.935 13.4922 152.084 14.0508 152.084 14.707C152.084 15.7773 151.65 16.6328 150.783 17.2734C149.923 17.9141 148.798 18.2344 147.408 18.2344C145.931 18.2344 144.732 17.8789 143.81 17.168C142.896 16.4492 142.439 15.543 142.439 14.4492H143.845C143.9 15.2695 144.244 15.9102 144.877 16.3711C145.517 16.8242 146.361 17.0508 147.408 17.0508C148.384 17.0508 149.173 16.8359 149.775 16.4062C150.377 15.9766 150.677 15.4336 150.677 14.7773ZM155.269 17.1562C155.269 16.8828 155.355 16.6523 155.527 16.4648C155.706 16.2695 155.952 16.1719 156.265 16.1719C156.577 16.1719 156.823 16.2695 157.003 16.4648C157.183 16.6523 157.273 16.8828 157.273 17.1562C157.273 17.4297 157.183 17.6562 157.003 17.8359C156.823 18.0078 156.577 18.0938 156.265 18.0938C155.952 18.0938 155.706 18.0078 155.527 17.8359C155.355 17.6562 155.269 17.4297 155.269 17.1562ZM162.684 7.46484C163.145 6.70703 163.735 6.12109 164.454 5.70703C165.173 5.29297 165.958 5.08594 166.809 5.08594C168.169 5.08594 169.18 5.46875 169.845 6.23438C170.509 7 170.845 8.14844 170.852 9.67969V18H169.458V9.66797C169.45 8.53516 169.208 7.69141 168.731 7.13672C168.263 6.58203 167.509 6.30469 166.47 6.30469C165.602 6.30469 164.833 6.57812 164.161 7.125C163.497 7.66406 163.005 8.39453 162.684 9.31641V18H161.29V0H162.684V7.46484ZM180.471 6.51562C180.174 6.46094 179.858 6.43359 179.522 6.43359C178.647 6.43359 177.905 6.67969 177.295 7.17188C176.694 7.65625 176.264 8.36328 176.006 9.29297V18H174.612V5.32031H175.983L176.006 7.33594C176.748 5.83594 177.94 5.08594 179.58 5.08594C179.971 5.08594 180.28 5.13672 180.506 5.23828L180.471 6.51562ZM12.7207 38.793H7.20117L5.84766 46H4.10742L5.46094 38.793H0.978516V37.1582H5.75977L7.21875 29.4062H2.31445V27.7188H7.53516L8.92383 20.4062H10.6641L9.27539 27.7188H14.8125L16.2012 20.4062H17.959L16.5703 27.7188H20.5957V29.4062H16.2539L14.7949 37.1582H19.2773V38.793H14.4785L13.125 46H11.3672L12.7207 38.793ZM7.5 37.1582H13.0371L14.4961 29.4062H8.95898L7.5 37.1582ZM22.1695 36.209C22.1695 34.3809 22.5211 32.7344 23.2242 31.2695C23.9391 29.8047 24.941 28.668 26.2301 27.8594C27.5309 27.0391 29.0016 26.6289 30.6422 26.6289C33.1734 26.6289 35.2242 27.5195 36.7945 29.3008C38.3648 31.0703 39.15 33.4199 39.15 36.3496V36.7891C39.15 38.6289 38.7926 40.2871 38.0777 41.7637C37.3746 43.2285 36.3785 44.3594 35.0895 45.1562C33.8004 45.9531 32.3297 46.3516 30.6773 46.3516C28.1578 46.3516 26.107 45.4668 24.525 43.6973C22.9547 41.916 22.1695 39.5605 22.1695 36.6309V36.209ZM24.2789 36.7891C24.2789 39.0625 24.8648 40.9316 26.0367 42.3965C27.2203 43.8496 28.7672 44.5762 30.6773 44.5762C32.5758 44.5762 34.1109 43.8496 35.2828 42.3965C36.4664 40.9316 37.0582 39.0039 37.0582 36.6133V36.209C37.0582 34.7559 36.7887 33.4258 36.2496 32.2188C35.7105 31.0117 34.9547 30.0801 33.982 29.4238C33.0094 28.7559 31.8961 28.4219 30.6422 28.4219C28.7672 28.4219 27.2379 29.1602 26.0543 30.6367C24.8707 32.1016 24.2789 34.0234 24.2789 36.4023V36.7891ZM55.05 41.166C55.05 40.123 54.6281 39.2852 53.7844 38.6523C52.9523 38.0195 51.6926 37.5273 50.0051 37.1758C48.3176 36.8125 47.0051 36.4023 46.0676 35.9453C45.1418 35.4766 44.4504 34.9082 43.9934 34.2402C43.548 33.5723 43.3254 32.7637 43.3254 31.8145C43.3254 30.3145 43.9523 29.0781 45.2063 28.1055C46.4602 27.1211 48.0656 26.6289 50.0227 26.6289C52.1438 26.6289 53.843 27.1562 55.1203 28.2109C56.4094 29.2539 57.0539 30.6191 57.0539 32.3066H54.9445C54.9445 31.1934 54.4758 30.2676 53.5383 29.5293C52.6125 28.791 51.4406 28.4219 50.0227 28.4219C48.6398 28.4219 47.5266 28.7324 46.6828 29.3535C45.8508 29.9629 45.4348 30.7598 45.4348 31.7441C45.4348 32.6934 45.7805 33.4316 46.4719 33.959C47.175 34.4746 48.4465 34.9492 50.2863 35.3828C52.1379 35.8164 53.5207 36.2793 54.4348 36.7715C55.3605 37.2637 56.0461 37.8555 56.4914 38.5469C56.9367 39.2383 57.1594 40.0762 57.1594 41.0605C57.1594 42.666 56.509 43.9492 55.2082 44.9102C53.9191 45.8711 52.2316 46.3516 50.1457 46.3516C47.9309 46.3516 46.132 45.8184 44.7492 44.752C43.3781 43.6738 42.6926 42.3145 42.6926 40.6738H44.802C44.884 41.9043 45.3996 42.8652 46.3488 43.5566C47.3098 44.2363 48.5754 44.5762 50.1457 44.5762C51.6105 44.5762 52.7941 44.2539 53.6965 43.6094C54.5988 42.9648 55.05 42.1504 55.05 41.166ZM65.325 22.1113V26.9805H69.2625V28.7031H65.325V41.377C65.325 42.4316 65.5125 43.2168 65.8875 43.7324C66.2742 44.248 66.9129 44.5059 67.8035 44.5059C68.1551 44.5059 68.7234 44.4473 69.5086 44.3301L69.5965 46.0527C69.0457 46.252 68.2957 46.3516 67.3465 46.3516C65.9051 46.3516 64.8562 45.9355 64.2 45.1035C63.5437 44.2598 63.2156 43.0234 63.2156 41.3945V28.7031H59.7176V26.9805H63.2156V22.1113H65.325ZM85.7777 46C85.5668 45.4023 85.432 44.5176 85.3734 43.3457C84.6352 44.3066 83.6918 45.0508 82.5434 45.5781C81.4066 46.0938 80.1996 46.3516 78.9223 46.3516C77.0941 46.3516 75.6117 45.8418 74.475 44.8223C73.35 43.8027 72.7875 42.5137 72.7875 40.9551C72.7875 39.1035 73.5551 37.6387 75.0902 36.5605C76.6371 35.4824 78.7875 34.9434 81.5414 34.9434H85.3559V32.7812C85.3559 31.4219 84.934 30.3555 84.0902 29.582C83.2582 28.7969 82.0395 28.4043 80.434 28.4043C78.9691 28.4043 77.7562 28.7793 76.7953 29.5293C75.8344 30.2793 75.3539 31.1816 75.3539 32.2363L73.2445 32.2188C73.2445 30.707 73.9477 29.4004 75.3539 28.2988C76.7602 27.1855 78.4887 26.6289 80.5395 26.6289C82.6605 26.6289 84.3305 27.1621 85.5492 28.2285C86.7797 29.2832 87.4125 30.7598 87.4477 32.6582V41.6582C87.4477 43.498 87.641 44.875 88.0277 45.7891V46H85.7777ZM79.1684 44.4883C80.5746 44.4883 81.8285 44.1484 82.9301 43.4688C84.0434 42.7891 84.852 41.8809 85.3559 40.7441V36.5605H81.5941C79.4965 36.584 77.8559 36.9707 76.6723 37.7207C75.4887 38.459 74.8969 39.4785 74.8969 40.7793C74.8969 41.8457 75.2895 42.7305 76.0746 43.4336C76.8715 44.1367 77.9027 44.4883 79.1684 44.4883ZM95.2266 26.9805L95.2969 30.2324C96.0117 29.0605 96.9023 28.1699 97.9688 27.5605C99.0352 26.9395 100.213 26.6289 101.502 26.6289C103.541 26.6289 105.059 27.2031 106.055 28.3516C107.051 29.5 107.555 31.2227 107.566 33.5195V46H105.475V33.502C105.463 31.8027 105.1 30.5371 104.385 29.7051C103.682 28.873 102.551 28.457 100.992 28.457C99.6914 28.457 98.5371 28.8672 97.5293 29.6875C96.5332 30.4961 95.7949 31.5918 95.3145 32.9746V46H93.2227V26.9805H95.2266ZM115.521 46H113.412V26.9805H115.521V46ZM113.043 21.4785C113.043 21.0801 113.171 20.7461 113.429 20.4766C113.687 20.1953 114.039 20.0547 114.484 20.0547C114.929 20.0547 115.281 20.1953 115.539 20.4766C115.808 20.7461 115.943 21.0801 115.943 21.4785C115.943 21.877 115.808 22.2109 115.539 22.4805C115.281 22.75 114.929 22.8848 114.484 22.8848C114.039 22.8848 113.687 22.75 113.429 22.4805C113.171 22.2109 113.043 21.877 113.043 21.4785ZM120.558 36.3145C120.558 33.3613 121.214 31.0117 122.527 29.2656C123.851 27.5078 125.644 26.6289 127.905 26.6289C130.472 26.6289 132.429 27.6426 133.777 29.6699V19H135.868V46H133.9L133.812 43.4688C132.464 45.3906 130.484 46.3516 127.87 46.3516C125.679 46.3516 123.909 45.4727 122.562 43.7148C121.226 41.9453 120.558 39.5605 120.558 36.5605V36.3145ZM122.685 36.6836C122.685 39.1094 123.171 41.0254 124.144 42.4316C125.116 43.8262 126.488 44.5234 128.257 44.5234C130.847 44.5234 132.687 43.3809 133.777 41.0957V32.166C132.687 29.6934 130.859 28.457 128.292 28.457C126.523 28.457 125.146 29.1543 124.161 30.5488C123.177 31.9316 122.685 33.9766 122.685 36.6836ZM140.395 36.209C140.395 34.3809 140.747 32.7344 141.45 31.2695C142.165 29.8047 143.167 28.668 144.456 27.8594C145.757 27.0391 147.227 26.6289 148.868 26.6289C151.399 26.6289 153.45 27.5195 155.02 29.3008C156.591 31.0703 157.376 33.4199 157.376 36.3496V36.7891C157.376 38.6289 157.018 40.2871 156.304 41.7637C155.6 43.2285 154.604 44.3594 153.315 45.1562C152.026 45.9531 150.555 46.3516 148.903 46.3516C146.384 46.3516 144.333 45.4668 142.751 43.6973C141.18 41.916 140.395 39.5605 140.395 36.6309V36.209ZM142.505 36.7891C142.505 39.0625 143.091 40.9316 144.262 42.3965C145.446 43.8496 146.993 44.5762 148.903 44.5762C150.802 44.5762 152.337 43.8496 153.509 42.3965C154.692 40.9316 155.284 39.0039 155.284 36.6133V36.209C155.284 34.7559 155.014 33.4258 154.475 32.2188C153.936 31.0117 153.18 30.0801 152.208 29.4238C151.235 28.7559 150.122 28.4219 148.868 28.4219C146.993 28.4219 145.464 29.1602 144.28 30.6367C143.096 32.1016 142.505 34.0234 142.505 36.4023V36.7891ZM163.801 26.9805L163.871 30.0742C164.575 28.9258 165.454 28.0645 166.508 27.4902C167.563 26.916 168.735 26.6289 170.024 26.6289C173.024 26.6289 174.928 27.8594 175.737 30.3203C176.416 29.1367 177.325 28.2285 178.461 27.5957C179.598 26.9512 180.852 26.6289 182.223 26.6289C186.301 26.6289 188.381 28.8555 188.463 33.3086V46H186.354V33.4668C186.342 31.7676 185.973 30.5078 185.246 29.6875C184.532 28.8672 183.36 28.457 181.731 28.457C180.219 28.4805 178.942 28.9727 177.899 29.9336C176.856 30.8828 176.276 32.043 176.159 33.4141V46H174.049V33.3086C174.038 31.6797 173.651 30.4668 172.889 29.6699C172.139 28.8613 170.979 28.457 169.409 28.457C168.084 28.457 166.948 28.8379 165.998 29.5996C165.049 30.3496 164.346 31.4688 163.889 32.957V46H161.78V26.9805H163.801ZM205.963 46C205.752 45.4023 205.617 44.5176 205.559 43.3457C204.82 44.3066 203.877 45.0508 202.729 45.5781C201.592 46.0938 200.385 46.3516 199.107 46.3516C197.279 46.3516 195.797 45.8418 194.66 44.8223C193.535 43.8027 192.973 42.5137 192.973 40.9551C192.973 39.1035 193.74 37.6387 195.275 36.5605C196.822 35.4824 198.973 34.9434 201.727 34.9434H205.541V32.7812C205.541 31.4219 205.119 30.3555 204.275 29.582C203.443 28.7969 202.225 28.4043 200.619 28.4043C199.154 28.4043 197.941 28.7793 196.98 29.5293C196.02 30.2793 195.539 31.1816 195.539 32.2363L193.43 32.2188C193.43 30.707 194.133 29.4004 195.539 28.2988C196.945 27.1855 198.674 26.6289 200.725 26.6289C202.846 26.6289 204.516 27.1621 205.734 28.2285C206.965 29.2832 207.598 30.7598 207.633 32.6582V41.6582C207.633 43.498 207.826 44.875 208.213 45.7891V46H205.963ZM199.354 44.4883C200.76 44.4883 202.014 44.1484 203.115 43.4688C204.229 42.7891 205.037 41.8809 205.541 40.7441V36.5605H201.779C199.682 36.584 198.041 36.9707 196.857 37.7207C195.674 38.459 195.082 39.4785 195.082 40.7793C195.082 41.8457 195.475 42.7305 196.26 43.4336C197.057 44.1367 198.088 44.4883 199.354 44.4883Z" fill="#5E6369"/>
</svg>
